# File created by Blade
# Date/Time:  Tue Jan 27 17:09:01 2015
#---------------------------------------------------------
:version 1.10
:name HOM
:units
  mass 1.0
  length 1.000000
  angle deg
:documentation
     Acclaim Skeleton File
:root
   axis xyz
   order TX TY TZ RX RY RZ
   position 0.000000 0.000000 0.000000
   orientation 0 0 0
:bonedata
   begin
      id 1
      name Spine_dum
      direction 0.000000 1.000000 0.000000
      length 7.539951
      axis 0.0 0.0 0.0 xyz
   end
   begin
      id 2
      name LeftUpLeg_dum
      direction 1.000000 0.000000 0.000000
      length 3.345476
      axis 0.0 0.0 0.0 xyz
   end
   begin
      id 3
      name RightUpLeg_dum
      direction -1.000000 0.000000 0.000000
      length 3.345476
      axis 0.0 0.0 0.0 xyz
   end
   begin
      id 4
      name Spine
      direction 0.000000 1.000000 0.000000
      length 0.000000
      axis 0.0 0.0 0.0 xyz
      dof rx ry rz
   end
   begin
      id 5
      name Spine_dum1
      direction 0.000000 1.000000 0.000000
      length 15.093809
      axis 0.0 0.0 0.0 xyz
   end
   begin
      id 6
      name Spine_dum2
      direction 0.000000 1.000000 0.000000
      length 9.738928
      axis 0.0 0.0 0.0 xyz
   end
   begin
      id 7
      name Spine_dum3
      direction 0.000000 1.000000 0.000000
      length 9.738928
      axis 0.0 0.0 0.0 xyz
   end
   begin
      id 8
      name Head
      direction 0.000000 1.000000 0.000000
      length 4.527550
      axis 0.0 0.0 0.0 xyz
      dof rx ry rz
   end
   begin
      id 9
      name LeftShoulder
      direction 1.000000 0.000000 0.000000
      length 7.084015
      axis 0.0 0.0 -90.0 xyz
      dof rx ry rz
   end
   begin
      id 10
      name LeftArm
      direction 1.000000 0.000000 0.000000
      length 10.259319
      axis 0.0 0.0 -90.0 xyz
      dof rx ry rz
   end
   begin
      id 11
      name LeftForeArm
      direction 1.000000 0.000000 0.000000
      length 9.896984
      axis 0.0 0.0 -90.0 xyz
      dof ry rz rx
   end
   begin
      id 12
      name LeftHand
      direction 0.000000 0.000000 0.000000
      length 0.000000
      axis 0.0 0.0 -90.0 xyz
      dof rx ry rz
   end
   begin
      id 13
      name LeftHand_dum1
      direction 0.000000 0.000000 0.000000
      length 0.000000
      axis 0.0 0.0 -90.0 xyz
   end
   begin
      id 14
      name LeftHand_dum2
      direction 1.000000 0.000000 0.000000
      length 3.937000
      axis 0.0 0.0 -90.0 xyz
   end
   begin
      id 15
      name LeftHandThumb1
      direction 0.000000 0.000000 1.000000
      length 3.937000
      axis 0.0 0.0 -90.0 xyz
      dof rx rz ry
   end
   begin
      id 16
      name RightShoulder
      direction -1.000000 0.000000 0.000000
      length 7.084015
      axis 0.0 0.0 90.0 xyz
      dof rx ry rz
   end
   begin
      id 17
      name RightArm
      direction -1.000000 0.000000 0.000000
      length 10.259319
      axis 0.0 0.0 90.0 xyz
      dof rx ry rz
   end
   begin
      id 18
      name RightForeArm
      direction -1.000000 0.000000 0.000000
      length 9.896984
      axis 0.0 0.0 90.0 xyz
      dof ry rz rx
   end
   begin
      id 19
      name RightHand
      direction 0.000000 0.000000 0.000000
      length 0.000000
      axis 0.0 0.0 90.0 xyz
      dof rx ry rz
   end
   begin
      id 20
      name RightHand_dum1
      direction 0.000000 0.000000 0.000000
      length 0.000000
      axis 0.0 0.0 90.0 xyz
   end
   begin
      id 21
      name RightHand_dum2
      direction -1.000000 0.000000 0.000000
      length 3.937000
      axis 0.0 0.0 90.0 xyz
   end
   begin
      id 22
      name RightHandThumb1
      direction 0.000000 0.000000 1.000000
      length 3.937000
      axis 0.0 0.0 90.0 xyz
      dof rx rz ry
   end
   begin
      id 23
      name LeftUpLeg
      direction 0.000000 -1.000000 0.000000
      length 19.114733
      axis 0.0 0.0 0.0 xyz
      dof rx ry rz
   end
   begin
      id 24
      name LeftLeg
      direction 0.000000 -1.000000 0.000000
      length 16.045604
      axis 0.0 0.0 0.0 xyz
      dof rx ry rz
   end
   begin
      id 25
      name LeftFoot
      direction 0.000000 -0.258819 0.965926
      length 5.543155
      axis 15.0 0.0 0.0 xyz
      dof rx ry rz
   end
   begin
      id 26
      name LeftToeBase
      direction 0.000000 0.000000 1.000000
      length 2.952750
      axis 0.0 0.0 0.0 xyz
      dof rx ry rz
   end
   begin
      id 27
      name RightUpLeg
      direction 0.000000 -1.000000 0.000000
      length 19.114733
      axis 0.0 0.0 0.0 xyz
      dof rx ry rz
   end
   begin
      id 28
      name RightLeg
      direction 0.000000 -1.000000 0.000000
      length 16.045604
      axis 0.0 0.0 0.0 xyz
      dof rx ry rz
   end
   begin
      id 29
      name RightFoot
      direction 0.000000 -0.258819 0.965926
      length 5.543155
      axis 15.0 0.0 0.0 xyz
      dof rx ry rz
   end
   begin
      id 30
      name RightToeBase
      direction 0.000000 0.000000 1.000000
      length 2.952750
      axis 0.0 0.0 0.0 xyz
      dof rx ry rz
   end
:hierarchy
   begin
      root Spine_dum LeftUpLeg_dum RightUpLeg_dum
      Spine_dum Spine
      LeftUpLeg_dum LeftUpLeg
      RightUpLeg_dum RightUpLeg
      Spine Spine_dum1 Spine_dum2 Spine_dum3
      Spine_dum1 Head
      Spine_dum2 LeftShoulder
      Spine_dum3 RightShoulder
      LeftShoulder LeftArm
      LeftArm LeftForeArm
      LeftForeArm LeftHand
      LeftHand LeftHand_dum1 LeftHand_dum2
      LeftHand_dum1 LeftHandThumb1
      RightShoulder RightArm
      RightArm RightForeArm
      RightForeArm RightHand
      RightHand RightHand_dum1 RightHand_dum2
      RightHand_dum1 RightHandThumb1
      LeftUpLeg LeftLeg
      LeftLeg LeftFoot
      LeftFoot LeftToeBase
      RightUpLeg RightLeg
      RightLeg RightFoot
      RightFoot RightToeBase
   end

# File created by Blade
# Date/Time:  Tue Jan 27 17:08:52 2015
# Frame Rate: 120.000 fps
#------------------------------------------------------
:FULLY-SPECIFIED
:DEGREES
1080
root 5.602206 36.953280 -1.967387 -8.909572 21.782284 -12.574029
Spine 7.277930 3.257493 17.739459
Head -0.176236 -11.554774 -4.380935
LeftShoulder -2.478218 -5.139595 1.229614
LeftArm -1.801614 -6.901382 -60.288917
LeftForeArm 13.332299 -0.000000 119.777751
LeftHand -12.983039 -0.000000 29.544639
LeftHandThumb1 -26.253704 0.000000 33.147579
RightShoulder 0.880891 -18.984021 -3.298409
RightArm 16.630167 -8.703662 60.535998
RightForeArm 193.177995 0.000000 17.260750
RightHand 1.852191 -0.000000 5.509101
RightHandThumb1 -24.326973 -0.000000 -32.862282
LeftUpLeg -4.726630 10.443239 6.948024
LeftLeg 26.309339 -0.000000 -0.000000
LeftFoot -24.829200 -1.346575 -8.583923
LeftToeBase 15.923392 -0.000000 -0.000000
RightUpLeg -78.451679 -15.275184 8.212356
RightLeg 117.632031 -0.000000 -0.000000
RightFoot -2.888408 -8.362650 7.170741
RightToeBase 6.432795 -0.000000 -0.000000
1081
root 5.628178 36.960790 -1.979027 -8.703439 21.279632 -12.536861
Spine 7.174662 3.452035 17.838087
Head -0.208290 -11.502938 -4.490437
LeftShoulder -2.600140 -5.024266 1.127478
LeftArm -2.065772 -7.028415 -60.187292
LeftForeArm 13.276990 -0.000000 119.986174
LeftHand -13.008735 -0.000000 29.602942
LeftHandThumb1 -26.253704 0.000000 33.147579
RightShoulder 0.889187 -18.993201 -3.363610
RightArm 16.616630 -8.667679 60.532832
RightForeArm 193.156655 -0.000000 17.154788
RightHand 1.884459 -0.000000 5.011210
RightHandThumb1 -24.326973 -0.000000 -32.862282
LeftUpLeg -4.748428 10.599882 6.891404
LeftLeg 26.161445 -0.000000 -0.000000
LeftFoot -24.801359 -1.047682 -8.595494
LeftToeBase 15.783946 -0.000000 -0.000000
RightUpLeg -78.645599 -15.694737 8.446814
RightLeg 118.202769 -0.000000 -0.000000
RightFoot -2.871406 -8.220451 7.257605
RightToeBase 6.444246 -0.000000 -0.000000
1082
root 5.651189 36.967203 -1.989151 -8.496902 20.753601 -12.493787
Spine 7.081661 3.667554 17.916474
Head -0.243658 -11.433476 -4.586287
LeftShoulder -2.705784 -4.878208 1.045007
LeftArm -2.346361 -7.187401 -60.060311
LeftForeArm 13.215819 -0.000000 120.204391
LeftHand -13.022346 -0.000000 29.566411
LeftHandThumb1 -26.253704 0.000000 33.147579
RightShoulder 0.933051 -18.958979 -3.435289
RightArm 16.542187 -8.549912 60.581476
RightForeArm 193.455128 -0.000000 17.026532
RightHand 1.938949 -0.000000 4.503914
RightHandThumb1 -24.326973 -0.000000 -32.862282
LeftUpLeg -4.763293 10.757196 6.834224
LeftLeg 26.012438 -0.000000 -0.000000
LeftFoot -24.811525 -0.754749 -8.674029
LeftToeBase 15.768383 -0.000000 -0.000000
RightUpLeg -78.873654 -16.023451 8.679479
RightLeg 118.782219 -0.000000 -0.000000
RightFoot -2.777870 -8.020715 7.375867
RightToeBase 6.497514 -0.000000 -0.000000
1083
root 5.675428 36.973800 -1.998571 -8.333722 20.251042 -12.468766
Spine 7.044051 3.836233 18.028295
Head -0.314431 -11.321607 -4.680833
LeftShoulder -2.790781 -4.793628 0.939989
LeftArm -2.678206 -7.374183 -59.919682
LeftForeArm 13.125542 -0.000000 120.436435
LeftHand -13.034788 -0.000000 29.566719
LeftHandThumb1 -26.253704 0.000000 33.147579
RightShoulder 0.963900 -18.927787 -3.522602
RightArm 16.530059 -8.426645 60.638237
RightForeArm 193.452733 0.000000 16.871102
RightHand 1.865723 0.000000 4.306992
RightHandThumb1 -24.326973 -0.000000 -32.862282
LeftUpLeg -4.750693 10.899474 6.797477
LeftLeg 25.875581 -0.000000 -0.000000
LeftFoot -24.800818 -0.465544 -8.694936
LeftToeBase 15.625746 -0.000000 -0.000000
RightUpLeg -79.089987 -16.360818 8.925638
RightLeg 119.363513 -0.000000 -0.000000
RightFoot -2.707815 -7.709992 7.710909
RightToeBase 6.504090 -0.000000 -0.000000
1084
root 5.694031 36.979744 -2.007526 -8.165712 19.714770 -12.453139
Spine 7.026348 4.011650 18.108209
Head -0.438993 -11.213813 -4.700504
LeftShoulder -2.973814 -4.709875 0.901299
LeftArm -2.928302 -7.493344 -59.842154
LeftForeArm 13.079617 -0.000000 120.640182
LeftHand -13.066846 0.000000 29.613763
LeftHandThumb1 -26.253704 0.000000 33.147579
RightShoulder 1.015216 -18.865954 -3.576872
RightArm 16.511993 -8.398873 60.659497
RightForeArm 193.269137 -0.000000 16.757960
RightHand 1.803337 -0.000000 4.330675
RightHandThumb1 -24.326973 -0.000000 -32.862282
LeftUpLeg -4.754809 11.093767 6.783532
LeftLeg 25.780199 -0.000000 -0.000000
LeftFoot -24.772454 -0.192009 -8.609092
LeftToeBase 15.342984 -0.000000 -0.000000
RightUpLeg -79.329814 -16.646215 9.206205
RightLeg 119.928979 -0.000000 -0.000000
RightFoot -2.587436 -7.295233 7.844527
RightToeBase 6.518349 -0.000000 -0.000000
1085
root 5.714171 36.986185 -2.014358 -8.013964 19.156478 -12.447371
Spine 6.998692 4.220416 18.226147
Head -0.466171 -11.112615 -4.790592
LeftShoulder -3.040513 -4.611412 0.832052
LeftArm -3.283447 -7.691091 -59.741989
LeftForeArm 12.996741 -0.000000 120.883036
LeftHand -13.085346 -0.000000 29.668824
LeftHandThumb1 -26.253704 0.000000 33.147579
RightShoulder 1.066744 -18.828902 -3.664379
RightArm 16.480573 -8.461860 60.662259
RightForeArm 193.378610 -0.000000 16.667019
RightHand 1.992400 -0.000000 3.824605
RightHandThumb1 -24.326973 -0.000000 -32.862282
LeftUpLeg -4.737592 11.285952 6.783753
LeftLeg 25.670831 -0.000000 -0.000000
LeftFoot -24.796036 0.058709 -8.701542
LeftToeBase 15.301563 -0.000000 -0.000000
RightUpLeg -79.576062 -16.913438 9.507104
RightLeg 120.490489 -0.000000 -0.000000
RightFoot -2.434808 -6.772392 8.051878
RightToeBase 6.577671 -0.000000 -0.000000
1086
root 5.733222 36.991249 -2.024339 -7.822798 18.611323 -12.401011
Spine 6.970077 4.394533 18.270717
Head -0.566580 -10.976112 -4.826971
LeftShoulder -3.215277 -4.516490 0.745305
LeftArm -3.528395 -7.850592 -59.543697
LeftForeArm 12.906132 -0.000000 121.103509
LeftHand -13.201556 -0.000000 29.670193
LeftHandThumb1 -26.253704 0.000000 33.147579
RightShoulder 1.120764 -18.789088 -3.718706
RightArm 16.482527 -8.537658 60.638355
RightForeArm 193.416610 -0.000000 16.600869
RightHand 2.042806 -0.000000 3.935852
RightHandThumb1 -24.326973 -0.000000 -32.862282
LeftUpLeg -4.759821 11.485312 6.737054
LeftLeg 25.559796 -0.000000 -0.000000
LeftFoot -24.848026 0.291875 -8.908320
LeftToeBase 15.462047 -0.000000 -0.000000
RightUpLeg -79.899918 -17.154351 9.780938
RightLeg 121.052286 -0.000000 -0.000000
RightFoot -2.176385 -6.234729 8.315496
RightToeBase 6.475404 -0.000000 -0.000000
1087
root 5.748066 36.998172 -2.031082 -7.693119 18.043674 -12.417004
Spine 6.976793 4.621474 18.368649
Head -0.609141 -10.911649 -4.814726
LeftShoulder -3.315384 -4.398296 1.067339
LeftArm -4.108035 -7.832810 -60.014190
LeftForeArm 13.092753 -0.000000 121.228233
LeftHand -12.653532 0.000000 29.970434
LeftHandThumb1 -26.253704 0.000000 33.147579
RightShoulder 1.150473 -18.758053 -3.721059
RightArm 16.504364 -8.519311 60.588762
RightForeArm 193.416653 -0.000000 16.476906
RightHand 1.922980 -0.000000 3.813547
RightHandThumb1 -24.326973 -0.000000 -32.862282
LeftUpLeg -4.735769 11.669814 6.767745
LeftLeg 25.465762 -0.000000 -0.000000
LeftFoot -24.886331 0.528942 -9.048635
LeftToeBase 15.468275 -0.000000 -0.000000
RightUpLeg -80.155490 -17.323001 10.059915
RightLeg 121.585699 -0.000000 -0.000000
RightFoot -1.844765 -5.638910 8.254691
RightToeBase 6.103468 -0.000000 -0.000000
1088
root 5.764199 37.003951 -2.036732 -7.542551 17.487508 -12.402258
Spine 6.972204 4.807031 18.442846
Head -0.658137 -10.786376 -4.859074
LeftShoulder -3.430144 -4.307207 1.050242
LeftArm -4.458925 -8.020712 -59.930276
LeftForeArm 13.067355 -0.000000 121.426364
LeftHand -12.657058 -0.000000 29.956069
LeftHandThumb1 -26.253704 0.000000 33.147579
RightShoulder 1.195953 -18.712340 -3.764589
RightArm 16.489978 -8.494650 60.610401
RightForeArm 193.441528 -0.000000 16.424968
RightHand 1.958502 0.000000 3.782432
RightHandThumb1 -24.326973 -0.000000 -32.862282
LeftUpLeg -4.717321 11.866017 6.760008
LeftLeg 25.355481 -0.000000 -0.000000
LeftFoot -24.921426 0.794910 -9.128557
LeftToeBase 15.450743 -0.000000 -0.000000
RightUpLeg -80.484091 -17.506563 10.352518
RightLeg 122.119984 -0.000000 -0.000000
RightFoot -1.447535 -5.082760 8.230970
RightToeBase 6.044171 -0.000000 -0.000000
1089
root 5.777899 37.009094 -2.042866 -7.382490 16.936465 -12.380339
Spine 6.962127 4.963636 18.499012
Head -0.715617 -10.616721 -4.909015
LeftShoulder -3.543338 -4.228184 0.952508
LeftArm -4.753593 -8.283697 -59.730073
LeftForeArm 12.958450 -0.000000 121.629875
LeftHand -12.703646 -0.000000 29.933733
LeftHandThumb1 -26.253704 0.000000 33.147579
RightShoulder 1.271074 -18.665911 -3.820116
RightArm 16.489663 -8.590197 60.595137
RightForeArm 193.505930 -0.000000 16.384540
RightHand 2.027297 0.000000 3.851376
RightHandThumb1 -24.326973 -0.000000 -32.862282
LeftUpLeg -4.722757 12.036823 6.743559
LeftLeg 25.273936 -0.000000 -0.000000
LeftFoot -24.949516 1.066789 -9.220589
LeftToeBase 15.402120 -0.000000 -0.000000
RightUpLeg -80.843801 -17.665173 10.627518
RightLeg 122.638965 -0.000000 -0.000000
RightFoot -1.031062 -4.506079 8.124290
RightToeBase 6.110169 -0.000000 -0.000000
1090
root 5.788587 37.015147 -2.047393 -7.263631 16.364079 -12.393803
Spine 6.993488 5.171242 18.605660
Head -0.753215 -10.503681 -4.968374
LeftShoulder -3.610215 -4.162264 0.847960
LeftArm -5.028659 -8.544462 -59.545764
LeftForeArm 12.844334 -0.000000 121.808639
LeftHand -12.784963 -0.000000 29.899757
LeftHandThumb1 -26.253704 0.000000 33.147579
RightShoulder 1.285393 -18.657770 -3.861676
RightArm 16.531911 -8.578743 60.611329
RightForeArm 193.433872 -0.000000 16.357820
RightHand 2.003924 -0.000000 3.889802
RightHandThumb1 -24.326973 -0.000000 -32.862282
LeftUpLeg -4.694497 12.260434 6.780838
LeftLeg 25.202619 -0.000000 -0.000000
LeftFoot -24.998833 1.282048 -9.334597
LeftToeBase 15.446556 -0.000000 -0.000000
RightUpLeg -81.159542 -17.762082 10.900966
RightLeg 123.136920 -0.000000 -0.000000
RightFoot -0.641951 -3.928639 8.109586
RightToeBase 6.087653 -0.000000 -0.000000
1091
root 5.799486 37.021099 -2.051177 -7.157932 15.810593 -12.403730
Spine 7.033579 5.287022 18.695294
Head -0.786540 -10.333167 -5.033307
LeftShoulder -3.736241 -4.064764 0.796888
LeftArm -5.312719 -8.788121 -59.439258
LeftForeArm 12.831050 -0.000000 121.965633
LeftHand -12.802526 -0.000000 29.968939
LeftHandThumb1 -26.253704 0.000000 33.147579
RightShoulder 1.404574 -18.603243 -3.934828
RightArm 16.520601 -8.534649 60.645720
RightForeArm 193.421986 -0.000000 16.318251
RightHand 2.041209 -0.000000 3.717165
RightHandThumb1 -24.326973 -0.000000 -32.862282
LeftUpLeg -4.652663 12.421535 6.806758
LeftLeg 25.122246 -0.000000 -0.000000
LeftFoot -25.041972 1.558390 -9.428313
LeftToeBase 15.449471 -0.000000 -0.000000
RightUpLeg -81.485368 -17.860925 11.173126
RightLeg 123.606711 -0.000000 -0.000000
RightFoot -0.240356 -3.451485 8.178892
RightToeBase 6.171760 -0.000000 -0.000000
